# xmcd CD database file
#
# Track frame offsets:
#	150
#	13552
#	28025
#	42742
#	59270
#	75891
#	94348
#	114557
#	132699
#	147457
#	161510
#	181763
#
# Disc length: 2648 seconds
#
# Revision: 1
# Processed by: cddbd v1.5.2PL0 Copyright (c) Steve Scherf et al.
# Submitted via: CDex 1.79
#
DISCID=a00a560c
DTITLE=Olivia Newton-John - Greatest Hits Vol.2
DYEAR=2001
DGENRE=Country
TTITLE0=Let Me Be There
TTITLE1=If You Love Me (Let Me Know)
TTITLE2=Something Better To Do
TTITLE3=Come On Over
TTITLE4=Sam
TTITLE5=I Can't Help It
TTITLE6=Magic
TTITLE7=Suddenly-with Cliff Richard
TTITLE8=Make A Move On Me
TTITLE9=Heart Attack
TTITLE10=Soul Kiss
TTITLE11=Me And Bobby McGee
EXTD=YEAR: 2001
EXTT0=
EXTT1=
EXTT2=
EXTT3=
EXTT4=
EXTT5=
EXTT6=
EXTT7=
EXTT8=
EXTT9=
EXTT10=
EXTT11=
PLAYORDER=
